<mxfile host="app.diagrams.net" modified="2022-08-14T23:48:14.096Z" agent="5.0 (Windows NT 10.0; Win64; x64) AppleWebKit/537.36 (KHTML, like Gecko) Chrome/104.0.0.0 Safari/537.36" etag="84D5uqWNW_xq8l4SH2Hl" version="20.2.3" type="github">
  <diagram id="p5NBLqzSTFIIDADKYXvf" name="Page-1">
    <mxGraphModel dx="2060" dy="1138" grid="1" gridSize="10" guides="1" tooltips="1" connect="1" arrows="1" fold="1" page="1" pageScale="1" pageWidth="827" pageHeight="1169" math="0" shadow="0">
      <root>
        <mxCell id="0" />
        <mxCell id="1" parent="0" />
        <mxCell id="c_KQ88vrfiKcJWEWSUFT-17" value="FAE视角" style="rounded=1;absoluteArcSize=1;arcSize=2;html=1;strokeColor=none;gradientColor=none;shadow=0;dashed=1;strokeColor=#4284F3;fontSize=12;fontColor=#9E9E9E;align=left;verticalAlign=top;spacing=10;spacingTop=-4;fillColor=none;dashPattern=1 2;strokeWidth=2;" parent="1" vertex="1">
          <mxGeometry x="565" y="350" width="370" height="440" as="geometry" />
        </mxCell>
        <mxCell id="c_KQ88vrfiKcJWEWSUFT-16" value="管理员视角" style="rounded=1;absoluteArcSize=1;arcSize=2;html=1;strokeColor=none;gradientColor=none;shadow=0;dashed=1;strokeColor=#4284F3;fontSize=12;fontColor=#9E9E9E;align=left;verticalAlign=top;spacing=10;spacingTop=-4;fillColor=none;dashPattern=1 2;strokeWidth=2;" parent="1" vertex="1">
          <mxGeometry x="10" y="352" width="370" height="680" as="geometry" />
        </mxCell>
        <mxCell id="-CZ4SJs_n75rVengpm8A-2" value="超级管理员&lt;br&gt;WEB端" style="shape=umlActor;verticalLabelPosition=bottom;verticalAlign=top;html=1;" parent="1" vertex="1">
          <mxGeometry x="30" y="450" width="70" height="100" as="geometry" />
        </mxCell>
        <mxCell id="-CZ4SJs_n75rVengpm8A-22" value="Use" style="endArrow=open;endSize=12;dashed=1;html=1;rounded=0;entryX=0;entryY=0.5;entryDx=0;entryDy=0;" parent="1" target="dl_aMtKgIvR_t_I3cdD3-12" edge="1">
          <mxGeometry width="160" relative="1" as="geometry">
            <mxPoint x="90" y="470" as="sourcePoint" />
            <mxPoint x="170" y="480" as="targetPoint" />
          </mxGeometry>
        </mxCell>
        <mxCell id="dl_aMtKgIvR_t_I3cdD3-2" value="登录" style="ellipse;whiteSpace=wrap;html=1;" parent="1" vertex="1">
          <mxGeometry x="615" y="360" width="140" height="70" as="geometry" />
        </mxCell>
        <mxCell id="dl_aMtKgIvR_t_I3cdD3-3" value="&lt;br&gt;FAE&lt;br&gt;APP端" style="shape=umlActor;verticalLabelPosition=bottom;verticalAlign=top;html=1;" parent="1" vertex="1">
          <mxGeometry x="855" y="400" width="70" height="100" as="geometry" />
        </mxCell>
        <mxCell id="dl_aMtKgIvR_t_I3cdD3-4" value="获取机器列表" style="ellipse;whiteSpace=wrap;html=1;" parent="1" vertex="1">
          <mxGeometry x="622" y="465" width="140" height="70" as="geometry" />
        </mxCell>
        <mxCell id="dl_aMtKgIvR_t_I3cdD3-6" value="use" style="endArrow=open;endSize=12;dashed=1;html=1;rounded=0;exitX=0.229;exitY=0.335;exitDx=0;exitDy=0;exitPerimeter=0;" parent="1" source="dl_aMtKgIvR_t_I3cdD3-3" target="dl_aMtKgIvR_t_I3cdD3-2" edge="1">
          <mxGeometry width="160" relative="1" as="geometry">
            <mxPoint x="289" y="475" as="sourcePoint" />
            <mxPoint x="365" y="545" as="targetPoint" />
          </mxGeometry>
        </mxCell>
        <mxCell id="dl_aMtKgIvR_t_I3cdD3-7" value="use" style="endArrow=open;endSize=12;dashed=1;html=1;rounded=0;exitX=0.229;exitY=0.335;exitDx=0;exitDy=0;exitPerimeter=0;" parent="1" edge="1">
          <mxGeometry width="160" relative="1" as="geometry">
            <mxPoint x="881.0300000000002" y="443.5" as="sourcePoint" />
            <mxPoint x="765" y="500" as="targetPoint" />
          </mxGeometry>
        </mxCell>
        <mxCell id="dl_aMtKgIvR_t_I3cdD3-8" value="运程登录" style="ellipse;whiteSpace=wrap;html=1;" parent="1" vertex="1">
          <mxGeometry x="625" y="585" width="140" height="70" as="geometry" />
        </mxCell>
        <mxCell id="dl_aMtKgIvR_t_I3cdD3-9" value="use" style="endArrow=open;endSize=12;dashed=1;html=1;rounded=0;exitX=0;exitY=1;exitDx=0;exitDy=0;exitPerimeter=0;entryX=1;entryY=0.357;entryDx=0;entryDy=0;entryPerimeter=0;" parent="1" source="dl_aMtKgIvR_t_I3cdD3-3" target="dl_aMtKgIvR_t_I3cdD3-8" edge="1">
          <mxGeometry width="160" relative="1" as="geometry">
            <mxPoint x="891.0300000000002" y="453.5" as="sourcePoint" />
            <mxPoint x="775" y="510" as="targetPoint" />
          </mxGeometry>
        </mxCell>
        <mxCell id="dl_aMtKgIvR_t_I3cdD3-12" value="设置机器&lt;br&gt;是否允许远程控制" style="ellipse;whiteSpace=wrap;html=1;" parent="1" vertex="1">
          <mxGeometry x="180" y="395" width="130" height="70" as="geometry" />
        </mxCell>
        <mxCell id="dl_aMtKgIvR_t_I3cdD3-26" value="获取授权码" style="ellipse;whiteSpace=wrap;html=1;" parent="1" vertex="1">
          <mxGeometry x="182" y="680" width="130" height="70" as="geometry" />
        </mxCell>
        <mxCell id="dl_aMtKgIvR_t_I3cdD3-27" value="创建授权码" style="ellipse;whiteSpace=wrap;html=1;" parent="1" vertex="1">
          <mxGeometry x="182" y="780" width="130" height="70" as="geometry" />
        </mxCell>
        <mxCell id="dl_aMtKgIvR_t_I3cdD3-28" value="管理员&lt;br&gt;WEB端" style="shape=umlActor;verticalLabelPosition=bottom;verticalAlign=top;html=1;" parent="1" vertex="1">
          <mxGeometry x="20" y="810" width="70" height="100" as="geometry" />
        </mxCell>
        <mxCell id="dl_aMtKgIvR_t_I3cdD3-31" value="Use" style="endArrow=open;endSize=12;dashed=1;html=1;rounded=0;exitX=1;exitY=0.3333333333333333;exitDx=0;exitDy=0;exitPerimeter=0;" parent="1" source="dl_aMtKgIvR_t_I3cdD3-28" edge="1">
          <mxGeometry width="160" relative="1" as="geometry">
            <mxPoint x="110" y="490" as="sourcePoint" />
            <mxPoint x="180" y="950" as="targetPoint" />
          </mxGeometry>
        </mxCell>
        <mxCell id="dl_aMtKgIvR_t_I3cdD3-32" value="Use" style="endArrow=open;endSize=12;dashed=1;html=1;rounded=0;entryX=0;entryY=0.5;entryDx=0;entryDy=0;" parent="1" target="dl_aMtKgIvR_t_I3cdD3-26" edge="1">
          <mxGeometry width="160" relative="1" as="geometry">
            <mxPoint x="100" y="840" as="sourcePoint" />
            <mxPoint x="180" y="730" as="targetPoint" />
          </mxGeometry>
        </mxCell>
        <mxCell id="dl_aMtKgIvR_t_I3cdD3-35" value="查看访问记录" style="ellipse;whiteSpace=wrap;html=1;" parent="1" vertex="1">
          <mxGeometry x="182" y="940" width="130" height="70" as="geometry" />
        </mxCell>
        <mxCell id="u5ac07LkDrB2IrY_NUR4-2" value="授权码校验" style="ellipse;whiteSpace=wrap;html=1;" parent="1" vertex="1">
          <mxGeometry x="585" y="680" width="140" height="70" as="geometry" />
        </mxCell>
        <mxCell id="u5ac07LkDrB2IrY_NUR4-3" value="创建访问记录" style="ellipse;whiteSpace=wrap;html=1;" parent="1" vertex="1">
          <mxGeometry x="755" y="680" width="140" height="70" as="geometry" />
        </mxCell>
        <mxCell id="u5ac07LkDrB2IrY_NUR4-7" value="Include" style="endArrow=open;endSize=12;dashed=1;html=1;rounded=0;exitX=0.5;exitY=1;exitDx=0;exitDy=0;" parent="1" source="dl_aMtKgIvR_t_I3cdD3-8" target="u5ac07LkDrB2IrY_NUR4-2" edge="1">
          <mxGeometry width="160" relative="1" as="geometry">
            <mxPoint x="865" y="510" as="sourcePoint" />
            <mxPoint x="775" y="619.99" as="targetPoint" />
          </mxGeometry>
        </mxCell>
        <mxCell id="u5ac07LkDrB2IrY_NUR4-8" value="include" style="endArrow=open;endSize=12;dashed=1;html=1;rounded=0;exitX=1;exitY=1;exitDx=0;exitDy=0;" parent="1" source="dl_aMtKgIvR_t_I3cdD3-8" target="u5ac07LkDrB2IrY_NUR4-3" edge="1">
          <mxGeometry width="160" relative="1" as="geometry">
            <mxPoint x="865" y="510" as="sourcePoint" />
            <mxPoint x="775" y="619.99" as="targetPoint" />
          </mxGeometry>
        </mxCell>
        <mxCell id="u5ac07LkDrB2IrY_NUR4-9" value="获取&lt;br&gt;是否允许远程控制的信息" style="ellipse;whiteSpace=wrap;html=1;" parent="1" vertex="1">
          <mxGeometry x="180" y="500" width="130" height="70" as="geometry" />
        </mxCell>
        <mxCell id="u5ac07LkDrB2IrY_NUR4-10" value="Use" style="endArrow=open;endSize=12;dashed=1;html=1;rounded=0;entryX=0.015;entryY=0.414;entryDx=0;entryDy=0;entryPerimeter=0;" parent="1" target="u5ac07LkDrB2IrY_NUR4-9" edge="1">
          <mxGeometry width="160" relative="1" as="geometry">
            <mxPoint x="100" y="480" as="sourcePoint" />
            <mxPoint x="190" y="440" as="targetPoint" />
          </mxGeometry>
        </mxCell>
        <mxCell id="QQ_-1_HuMl6PIvVB_lLN-1" value="重新生成授权码" style="ellipse;whiteSpace=wrap;html=1;" vertex="1" parent="1">
          <mxGeometry x="182" y="860" width="130" height="70" as="geometry" />
        </mxCell>
      </root>
    </mxGraphModel>
  </diagram>
</mxfile>
